# MagicaVoxel @ Ephtracy

# group
o 

# material
mtllib untitled.mtl
usemtl palette

# normals
vn -1 0 0
vn 1 0 0
vn 0 0 1
vn 0 0 -1
vn 0 -1 0
vn 0 1 0

# texcoords
vt 0.0175781 0.5
vt 0.373047 0.5
vt 0.853516 0.5

# verts
v -0.3 0 3.2
v -0.3 0 2.9
v -0.3 0.1 3.2
v -0.3 0.1 2.9
v -0.2 0 2.9
v -0.2 0 2.7
v -0.2 0.1 2.9
v -0.2 0.1 2.7
v -0.1 0 2.7
v -0.1 0 2.5
v -0.1 0.1 3.2
v -0.1 0.1 2.9
v -0.1 0.1 2.7
v -0.1 0.1 2.5
v -0.1 0.2 3.2
v -0.1 0.2 2.9
v 2.98023e-08 0 2.5
v 2.98023e-08 0 2.4
v 2.98023e-08 0.1 2.9
v 2.98023e-08 0.1 2.7
v 2.98023e-08 0.1 2.5
v 2.98023e-08 0.1 2.4
v 2.98023e-08 0.2 2.9
v 2.98023e-08 0.2 2.7
v 0.1 0 2.4
v 0.1 0 2.3
v 0.1 0.1 2.7
v 0.1 0.1 2.6
v 0.1 0.1 2.4
v 0.1 0.1 2.3
v 0.1 0.2 2.7
v 0.1 0.2 2.6
v 0.2 0 2.3
v 0.2 0 2.2
v 0.2 0.1 2.6
v 0.2 0.1 2.5
v 0.2 0.1 2.3
v 0.2 0.1 2.2
v 0.2 0.2 2.6
v 0.2 0.2 2.5
v 0.3 0.1 2.5
v 0.3 0.1 2.4
v 0.3 0.2 2.5
v 0.3 0.2 2.4
v 0.4 0 2.2
v 0.4 0 2.1
v 0.4 0.1 2.4
v 0.4 0.1 2.3
v 0.4 0.1 2.2
v 0.4 0.1 2.1
v 0.4 0.2 2.4
v 0.4 0.2 2.3
v 0.6 0 2.1
v 0.6 0 2
v 0.6 0.1 2.3
v 0.6 0.1 2.2
v 0.6 0.1 2.1
v 0.6 0.1 2
v 0.6 0.2 2.3
v 0.6 0.2 2.2
v 0.9 0 3.2
v 0.9 0 2
v 0.9 0.1 3.2
v 0.9 0.1 2.2
v 0.9 0.1 2
v 0.9 0.2 3.2
v 0.9 0.2 2.2
v -0.3 0 3.2
v -0.3 0.1 3.2
v -0.1 0.1 3.2
v -0.1 0.2 3.2
v 0.9 0 3.2
v 0.9 0.1 3.2
v 0.9 0.2 3.2
v -0.3 0 2.9
v -0.3 0.1 2.9
v -0.2 0 2.9
v -0.2 0.1 2.9
v -0.1 0.1 2.9
v -0.1 0.2 2.9
v 2.98023e-08 0.1 2.9
v 2.98023e-08 0.2 2.9
v -0.2 0 2.7
v -0.2 0.1 2.7
v -0.1 0 2.7
v -0.1 0.1 2.7
v 2.98023e-08 0.1 2.7
v 2.98023e-08 0.2 2.7
v 0.1 0.1 2.7
v 0.1 0.2 2.7
v 0.1 0.1 2.6
v 0.1 0.2 2.6
v 0.2 0.1 2.6
v 0.2 0.2 2.6
v -0.1 0 2.5
v -0.1 0.1 2.5
v 2.98023e-08 0 2.5
v 2.98023e-08 0.1 2.5
v 0.2 0.1 2.5
v 0.2 0.2 2.5
v 0.3 0.1 2.5
v 0.3 0.2 2.5
v 2.98023e-08 0 2.4
v 2.98023e-08 0.1 2.4
v 0.1 0 2.4
v 0.1 0.1 2.4
v 0.3 0.1 2.4
v 0.3 0.2 2.4
v 0.4 0.1 2.4
v 0.4 0.2 2.4
v 0.1 0 2.3
v 0.1 0.1 2.3
v 0.2 0 2.3
v 0.2 0.1 2.3
v 0.4 0.1 2.3
v 0.4 0.2 2.3
v 0.6 0.1 2.3
v 0.6 0.2 2.3
v 0.2 0 2.2
v 0.2 0.1 2.2
v 0.4 0 2.2
v 0.4 0.1 2.2
v 0.6 0.1 2.2
v 0.6 0.2 2.2
v 0.9 0.1 2.2
v 0.9 0.2 2.2
v 0.4 0 2.1
v 0.4 0.1 2.1
v 0.6 0 2.1
v 0.6 0.1 2.1
v 0.6 0 2
v 0.6 0.1 2
v 0.9 0 2
v 0.9 0.1 2
v -0.3 0 3.2
v 0.9 0 3.2
v -0.3 0 2.9
v -0.2 0 2.9
v -0.2 0 2.7
v -0.1 0 2.7
v -0.1 0 2.5
v 2.98023e-08 0 2.5
v 2.98023e-08 0 2.4
v 0.1 0 2.4
v 0.1 0 2.3
v 0.2 0 2.3
v 0.2 0 2.2
v 0.4 0 2.2
v 0.4 0 2.1
v 0.6 0 2.1
v 0.6 0 2
v 0.9 0 2
v -0.3 0.1 3.2
v -0.1 0.1 3.2
v -0.3 0.1 2.9
v -0.2 0.1 2.9
v -0.1 0.1 2.9
v 2.98023e-08 0.1 2.9
v -0.2 0.1 2.7
v -0.1 0.1 2.7
v 2.98023e-08 0.1 2.7
v 0.1 0.1 2.7
v 0.1 0.1 2.6
v 0.2 0.1 2.6
v -0.1 0.1 2.5
v 2.98023e-08 0.1 2.5
v 0.2 0.1 2.5
v 0.3 0.1 2.5
v 2.98023e-08 0.1 2.4
v 0.1 0.1 2.4
v 0.3 0.1 2.4
v 0.4 0.1 2.4
v 0.1 0.1 2.3
v 0.2 0.1 2.3
v 0.4 0.1 2.3
v 0.6 0.1 2.3
v 0.2 0.1 2.2
v 0.4 0.1 2.2
v 0.6 0.1 2.2
v 0.9 0.1 2.2
v 0.4 0.1 2.1
v 0.6 0.1 2.1
v 0.6 0.1 2
v 0.9 0.1 2
v -0.1 0.2 3.2
v 0.9 0.2 3.2
v 0.1 0.2 3.1
v 0.2 0.2 3.1
v 0.1 0.2 3
v 0.2 0.2 3
v 0.4 0.2 3
v 0.5 0.2 3
v -0.1 0.2 2.9
v 2.98023e-08 0.2 2.9
v 0.4 0.2 2.9
v 0.5 0.2 2.9
v 0.7 0.2 2.9
v 0.8 0.2 2.9
v 0.7 0.2 2.8
v 0.8 0.2 2.8
v 2.98023e-08 0.2 2.7
v 0.1 0.2 2.7
v 0.4 0.2 2.7
v 0.5 0.2 2.7
v 0.1 0.2 2.6
v 0.2 0.2 2.6
v 0.4 0.2 2.6
v 0.5 0.2 2.6
v 0.2 0.2 2.5
v 0.3 0.2 2.5
v 0.7 0.2 2.5
v 0.8 0.2 2.5
v 0.3 0.2 2.4
v 0.4 0.2 2.4
v 0.7 0.2 2.4
v 0.8 0.2 2.4
v 0.4 0.2 2.3
v 0.6 0.2 2.3
v 0.6 0.2 2.2
v 0.9 0.2 2.2

# faces
f 3/2/1 2/2/1 1/2/1
f 4/2/1 2/2/1 3/2/1
f 7/2/1 6/2/1 5/2/1
f 8/2/1 6/2/1 7/2/1
f 13/2/1 10/2/1 9/2/1
f 14/2/1 10/2/1 13/2/1
f 15/1/1 12/1/1 11/1/1
f 16/1/1 12/1/1 15/1/1
f 21/2/1 18/2/1 17/2/1
f 22/2/1 18/2/1 21/2/1
f 23/1/1 20/1/1 19/1/1
f 24/1/1 20/1/1 23/1/1
f 29/2/1 26/2/1 25/2/1
f 30/2/1 26/2/1 29/2/1
f 31/1/1 28/1/1 27/1/1
f 32/1/1 28/1/1 31/1/1
f 37/2/1 34/2/1 33/2/1
f 38/2/1 34/2/1 37/2/1
f 39/1/1 36/1/1 35/1/1
f 40/1/1 36/1/1 39/1/1
f 43/1/1 42/1/1 41/1/1
f 44/1/1 42/1/1 43/1/1
f 49/2/1 46/2/1 45/2/1
f 50/2/1 46/2/1 49/2/1
f 51/1/1 48/1/1 47/1/1
f 52/1/1 48/1/1 51/1/1
f 57/2/1 54/2/1 53/2/1
f 58/2/1 54/2/1 57/2/1
f 59/1/1 56/1/1 55/1/1
f 60/1/1 56/1/1 59/1/1
f 61/2/2 62/2/2 63/2/2
f 63/2/2 62/2/2 64/2/2
f 64/2/2 62/2/2 65/2/2
f 63/1/2 64/1/2 66/1/2
f 66/1/2 64/1/2 67/1/2
f 70/2/3 69/2/3 68/2/3
f 72/2/3 70/2/3 68/2/3
f 73/1/3 71/1/3 70/1/3
f 73/2/3 70/2/3 72/2/3
f 74/1/3 71/1/3 73/1/3
f 75/2/4 76/2/4 77/2/4
f 77/2/4 76/2/4 78/2/4
f 79/1/4 80/1/4 81/1/4
f 81/1/4 80/1/4 82/1/4
f 83/2/4 84/2/4 85/2/4
f 85/2/4 84/2/4 86/2/4
f 87/1/4 88/1/4 89/1/4
f 89/1/4 88/1/4 90/1/4
f 91/1/4 92/1/4 93/1/4
f 93/1/4 92/1/4 94/1/4
f 95/2/4 96/2/4 97/2/4
f 97/2/4 96/2/4 98/2/4
f 99/1/4 100/1/4 101/1/4
f 101/1/4 100/1/4 102/1/4
f 103/2/4 104/2/4 105/2/4
f 105/2/4 104/2/4 106/2/4
f 107/1/4 108/1/4 109/1/4
f 109/1/4 108/1/4 110/1/4
f 111/2/4 112/2/4 113/2/4
f 113/2/4 112/2/4 114/2/4
f 115/1/4 116/1/4 117/1/4
f 117/1/4 116/1/4 118/1/4
f 119/2/4 120/2/4 121/2/4
f 121/2/4 120/2/4 122/2/4
f 123/1/4 124/1/4 125/1/4
f 125/1/4 124/1/4 126/1/4
f 127/2/4 128/2/4 129/2/4
f 129/2/4 128/2/4 130/2/4
f 131/2/4 132/2/4 133/2/4
f 133/2/4 132/2/4 134/2/4
f 137/2/5 136/2/5 135/2/5
f 138/2/5 136/2/5 137/2/5
f 139/2/5 136/2/5 138/2/5
f 140/2/5 136/2/5 139/2/5
f 141/2/5 136/2/5 140/2/5
f 142/2/5 136/2/5 141/2/5
f 143/2/5 136/2/5 142/2/5
f 144/2/5 136/2/5 143/2/5
f 145/2/5 136/2/5 144/2/5
f 146/2/5 136/2/5 145/2/5
f 147/2/5 136/2/5 146/2/5
f 148/2/5 136/2/5 147/2/5
f 149/2/5 136/2/5 148/2/5
f 150/2/5 136/2/5 149/2/5
f 151/2/5 136/2/5 150/2/5
f 152/2/5 136/2/5 151/2/5
f 153/2/6 154/2/6 155/2/6
f 155/2/6 154/2/6 156/2/6
f 156/2/6 154/2/6 157/2/6
f 157/2/6 158/2/6 159/2/6
f 156/2/6 157/2/6 159/2/6
f 159/2/6 158/2/6 160/2/6
f 160/2/6 158/2/6 161/2/6
f 161/2/6 162/2/6 163/2/6
f 160/2/6 161/2/6 163/2/6
f 160/2/6 163/2/6 165/2/6
f 163/2/6 164/2/6 165/2/6
f 165/2/6 164/2/6 166/2/6
f 166/2/6 164/2/6 167/2/6
f 167/2/6 168/2/6 169/2/6
f 166/2/6 167/2/6 169/2/6
f 169/2/6 168/2/6 170/2/6
f 170/2/6 168/2/6 171/2/6
f 171/2/6 172/2/6 173/2/6
f 170/2/6 171/2/6 173/2/6
f 173/2/6 172/2/6 174/2/6
f 174/2/6 172/2/6 175/2/6
f 175/2/6 176/2/6 177/2/6
f 174/2/6 175/2/6 177/2/6
f 177/2/6 176/2/6 178/2/6
f 178/2/6 176/2/6 179/2/6
f 179/2/6 180/2/6 181/2/6
f 178/2/6 179/2/6 181/2/6
f 181/2/6 180/2/6 182/2/6
f 182/2/6 180/2/6 183/2/6
f 183/2/6 180/2/6 184/2/6
f 185/1/6 186/1/6 187/1/6
f 187/1/6 186/1/6 188/1/6
f 185/1/6 187/1/6 189/1/6
f 187/3/6 188/3/6 189/3/6
f 188/1/6 186/1/6 190/1/6
f 189/3/6 188/3/6 190/3/6
f 190/1/6 186/1/6 191/1/6
f 191/1/6 186/1/6 192/1/6
f 185/1/6 189/1/6 193/1/6
f 189/1/6 190/1/6 193/1/6
f 190/1/6 191/1/6 193/1/6
f 193/1/6 191/1/6 194/1/6
f 191/3/6 192/3/6 195/3/6
f 194/1/6 191/1/6 195/1/6
f 192/1/6 186/1/6 196/1/6
f 195/3/6 192/3/6 196/3/6
f 196/1/6 186/1/6 197/1/6
f 197/1/6 186/1/6 198/1/6
f 194/1/6 195/1/6 199/1/6
f 197/3/6 198/3/6 199/3/6
f 196/1/6 197/1/6 199/1/6
f 195/1/6 196/1/6 199/1/6
f 198/1/6 186/1/6 200/1/6
f 199/3/6 198/3/6 200/3/6
f 194/1/6 199/1/6 201/1/6
f 199/1/6 200/1/6 201/1/6
f 201/1/6 200/1/6 202/1/6
f 202/1/6 200/1/6 203/1/6
f 203/1/6 200/1/6 204/1/6
f 202/1/6 203/1/6 205/1/6
f 205/1/6 203/1/6 206/1/6
f 203/3/6 204/3/6 207/3/6
f 206/1/6 203/1/6 207/1/6
f 204/1/6 200/1/6 208/1/6
f 207/3/6 204/3/6 208/3/6
f 206/1/6 207/1/6 209/1/6
f 207/1/6 208/1/6 209/1/6
f 209/1/6 208/1/6 210/1/6
f 208/1/6 200/1/6 211/1/6
f 210/1/6 208/1/6 211/1/6
f 200/1/6 186/1/6 212/1/6
f 211/1/6 200/1/6 212/1/6
f 210/1/6 211/1/6 213/1/6
f 213/1/6 211/1/6 214/1/6
f 211/3/6 212/3/6 215/3/6
f 214/1/6 211/1/6 215/1/6
f 212/1/6 186/1/6 216/1/6
f 215/3/6 212/3/6 216/3/6
f 214/1/6 215/1/6 217/1/6
f 215/1/6 216/1/6 217/1/6
f 217/1/6 216/1/6 218/1/6
f 218/1/6 216/1/6 219/1/6
f 216/1/6 186/1/6 220/1/6
f 219/1/6 216/1/6 220/1/6
